<?xml version="1.0" encoding="UTF-8"?>
<svg width="182px" height="61px" viewBox="0 0 182 61" version="1.1" xmlns="http://www.w3.org/2000/svg" xmlns:xlink="http://www.w3.org/1999/xlink">
    <title>cloud-4</title>
    <g id="Page-1" stroke="none" stroke-width="1" fill="none" fill-rule="evenodd" fill-opacity="0.45">
        <g id="Vacation-2" transform="translate(-818.000000, -246.000000)" fill="#FFFFFF" fill-rule="nonzero">
            <g id="cloud-4" transform="translate(909.000000, 276.500000) scale(-1, 1) rotate(-180.000000) translate(-909.000000, -276.500000) translate(818.000000, 246.000000)">
                <path d="M180.40775,1.76741667 C180.247801,1.48763406 180.209146,1.20785144 180.234471,0.953382496 C121.387553,2.67204712 62.3780184,3.53937322 3.51643767,3.16632974 C3.4777831,3.16632974 3.43779562,3.13968378 3.39647521,3.13968378 C0.730642755,7.1765472 -1.58863148,11.6117678 1.41043003,16.3960505 C5.33053666,22.6565195 14.4463508,21.1923238 18.0185663,15.4900877 C18.898291,14.0911746 20.950982,15.0237834 20.6310821,16.5958952 C17.9652496,29.7043768 24.3779096,43.6282249 37.8790181,47.3573274 C51.0895508,50.9958337 64.3520673,42.069436 65.5370298,28.333442 C65.6983127,26.5881314 68.3228248,26.5215165 68.3761414,28.1602432 C68.8826496,28.0536594 69.4824619,28.2654948 69.7223868,28.8783519 C77.9864674,49.5822653 97.5936652,62.2137842 120.039974,60.8535078 C141.353305,59.5625108 167.398488,41.7230385 155.868763,17.5684728 C155.255621,16.2748113 156.641854,15.1303672 157.656203,15.5700256 C157.829482,15.5433796 158.014758,15.5700256 158.188037,15.6766095 C163.533031,18.712917 168.358188,21.831827 174.664214,19.1405847 C181.555391,16.2095287 183.874666,8.1890938 180.40775,1.76741667 Z" id="path34"></path>
            </g>
        </g>
    </g>
</svg>