<?xml version="1.0" encoding="UTF-8"?>
<svg width="124px" height="45px" viewBox="0 0 124 45" version="1.1" xmlns="http://www.w3.org/2000/svg" xmlns:xlink="http://www.w3.org/1999/xlink">
    <title>cloud-3</title>
    <g id="Page-1" stroke="none" stroke-width="1" fill="none" fill-rule="evenodd" fill-opacity="0.52">
        <g id="Vacation-2" transform="translate(-545.000000, -163.000000)" fill="#FFFFFF" fill-rule="nonzero">
            <g id="cloud-3" transform="translate(607.000000, 185.500000) scale(-1, 1) rotate(-180.000000) translate(-607.000000, -185.500000) translate(545.000000, 163.000000)">
                <path d="M63.0084366,0.364845457 C42.8913955,0.384945402 22.5671139,1.23986304 2.47280238,0.21878586 C2.46210609,0.281765686 2.45274684,0.334025542 2.43135427,0.395665372 C-0.987446346,7.58206556 -1.32036827,15.9744624 4.83133358,21.930746 C11.8347273,28.7097873 22.9722357,25.4817362 25.8615701,16.4019212 C26.2038513,15.3500241 27.5555945,15.4639238 27.9500201,16.2143218 C28.3751975,16.1727819 28.8338008,16.4327412 28.7923527,16.9432797 C27.7320833,30.4906424 36.2516756,43.2996671 50.5285442,44.1746847 C65.0955495,45.0590822 76.1301062,32.5113568 74.9775813,18.2752361 C74.966885,18.1613364 74.9976369,18.0782566 75.0083331,17.9844569 L75.0083331,17.9737369 C74.3224338,17.2662189 75.3506143,16.2558616 76.0779618,16.9017399 C76.2758431,17.0786194 76.4844207,17.2447789 76.680965,17.4216584 C76.7545019,17.4739183 76.8267019,17.5368981 76.8882055,17.5998779 C81.8031492,21.8061263 87.6125699,25.2834168 94.3137935,24.835858 C102.06459,24.3266594 108.237685,17.5047382 105.670576,9.68451976 C105.337654,8.68488252 106.365834,8.12208407 107.13463,8.40348329 C107.353904,8.30030358 107.602593,8.26814367 107.841922,8.41420326 C115.229045,12.8924709 122.981179,8.59108278 124,0.301865631 L63.0084366,0.364845457 Z" id="path30"></path>
            </g>
        </g>
    </g>
</svg>