<?xml version="1.0" encoding="UTF-8"?>
<svg width="122px" height="56px" viewBox="0 0 122 56" version="1.1" xmlns="http://www.w3.org/2000/svg" xmlns:xlink="http://www.w3.org/1999/xlink">
    <title>cloud-2</title>
    <g id="Page-1" stroke="none" stroke-width="1" fill="none" fill-rule="evenodd" fill-opacity="0.5">
        <g id="Vacation-2" transform="translate(-242.000000, -28.000000)" fill="#FFFFFF" fill-rule="nonzero">
            <g id="cloud-2" transform="translate(303.000000, 56.000000) scale(-1, 1) rotate(-180.000000) translate(-303.000000, -56.000000) translate(242.000000, 28.000000)">
                <path d="M106.06053,13.136942 C114.892353,17.8019465 123.684153,10.8441983 121.723008,1.30214368 C121.696326,1.16961515 121.723008,1.06359232 121.723008,0.957569489 C81.8864169,2.41538339 41.8897325,2.82622185 2.07982383,0.666006708 C-0.561718366,8.28639756 -1.9625362,17.6694179 5.93540815,22.824778 C14.1668806,28.2054366 21.5178389,21.5127455 26.4673952,15.21764 C27.427956,13.9851246 29.6159001,15.6284785 28.6686804,16.9007524 C28.628657,16.940511 28.5886337,16.9935224 28.5619514,17.033281 C23.2922082,35.2029433 42.0765082,50.6955292 58.2192661,54.883431 C77.8440569,59.9592739 92.0656932,39.3510865 87.8098752,21.7247912 C87.4496649,20.2404716 89.2907398,19.4850589 90.1712538,20.3067358 C90.5848286,20.0416787 91.171838,20.0416787 91.5187072,20.5982986 C96.2014411,28.0596552 107.074456,22.7982723 103.979315,14.7272844 C103.512376,13.5080219 105.059946,12.6068278 106.06053,13.136942" id="path26"></path>
            </g>
        </g>
    </g>
</svg>