<?xml version="1.0" encoding="UTF-8"?>
<svg width="88px" height="31px" viewBox="0 0 88 31" version="1.1" xmlns="http://www.w3.org/2000/svg" xmlns:xlink="http://www.w3.org/1999/xlink">
    <title>cloud-5</title>
    <g id="Page-1" stroke="none" stroke-width="1" fill="none" fill-rule="evenodd" opacity="0.41">
        <g id="Vacation-2" transform="translate(-789.000000, -65.000000)" fill="#FFFFFF" fill-rule="nonzero">
            <g id="cloud-5" transform="translate(833.000000, 80.500000) scale(-1, 1) rotate(-180.000000) translate(-833.000000, -80.500000) translate(789.000000, 65.000000)">
                <path d="M87.7335604,18.1415202 C88.9824318,11.7271858 85.6343937,6.3277777 81.9940665,1.48319603 C81.5290612,1.34787252 81.1703428,0.914837289 81.0374842,0.441205003 C66.8880374,1.26667842 52.7253047,1.90269891 38.5625721,2.24100769 C31.3084895,2.4033959 24.0544069,2.52518706 16.8136102,2.52518706 C12.0041269,2.53871941 7.2876446,2.74170468 2.75716445,1.36140487 C2.71730686,1.38846958 2.70402099,1.42906663 2.6641634,1.46966368 C-1.02930722,4.52797502 -0.68387472,8.08698334 2.47816128,11.0370359 C6.1317743,14.433656 9.85048806,13.5405208 13.7180035,10.8340506 C14.4221544,10.3333536 15.6710258,10.8069859 15.8038844,11.6865887 C17.0527558,19.7654023 21.5566642,27.9118776 29.9533312,29.968795 C40.0107314,32.4181505 49.3506949,25.0700839 47.6368182,14.2442031 C47.3578151,12.5391268 49.8024143,11.7677828 50.227562,13.5134561 C50.2541337,13.5946502 50.2541337,13.6893767 50.2807055,13.7705708 C50.4799935,13.8111678 50.6527097,13.9194266 50.7589966,14.1765413 C54.6902842,23.5409282 63.0351364,29.968795 73.344968,28.6155599 C78.7257436,27.8983452 86.5245467,24.3528693 87.7335604,18.1415202" id="path42"></path>
            </g>
        </g>
    </g>
</svg>