<?xml version="1.0" encoding="UTF-8"?>
<svg width="558px" height="558px" viewBox="0 0 558 558" version="1.1" xmlns="http://www.w3.org/2000/svg" xmlns:xlink="http://www.w3.org/1999/xlink">
    <title>Paper Plane Logo</title>
    <g id="Paper-Plane-Logo" stroke="none" stroke-width="1" fill="none" fill-rule="evenodd">
        <g id="paper-plane" transform="translate(279.500000, 278.500000) scale(1, -1) translate(-279.500000, -278.500000) translate(1.000000, 77.000000)" fill-rule="nonzero">
            <path d="M512.088446,388.516099 C432.355281,377.811243 352.932622,364.931963 273.901679,349.69188 C184.256207,332.435079 96.18715,309.271491 7.04804182,289.82115 C43.5253317,254.485567 78.6125102,217.400887 113.943316,180.98526 C114.282484,180.645955 114.430572,180.282754 114.616876,179.972122 C250.709269,243.298036 383.949783,310.265513 512.088446,388.516099 L512.088446,388.516099 Z M549.019552,398.155249 C553.099123,401.304579 559.457331,396.042951 556.013103,391.197092 C510.220632,326.924945 462.340607,264.086484 416.294955,199.972043 C371.133051,137.042782 333.724243,70.8925063 295.2836,3.86768209 C295.498565,1.72671087 293.382347,-0.0271650979 291.290015,0.441172355 C286.971593,-0.715334416 282.557631,0.431614448 279.600658,3.53315533 C278.874552,3.52359743 278.07679,3.69563976 277.331576,4.16875616 L283.384054,5.72191608 C284.46366,5.24879968 285.610143,4.98117827 286.775735,4.95728351 C286.79962,5.44473677 286.876052,5.93696899 287.138788,6.45787494 C317.988754,75.9104076 361.440487,140.956745 405.541893,202.567015 C447.297785,260.994502 489.669912,319.173483 532.658274,376.764652 C408.60396,292.631174 285.925426,205.314913 158.813822,125.95561 L154.108462,132.469323 C277.236035,222.022135 406.258445,304.172347 532.610504,389.118247 C399.43209,306.662182 260.253745,230.672041 115.199671,171.264869 C113.102562,170.433331 111.430606,171.3031 110.460872,172.660323 L103.40522,173.08565 C103.409997,173.377166 103.467322,173.630451 103.476876,173.917188 C103.515092,174.987674 104.035786,175.737969 104.738008,176.225423 C68.6858721,210.605215 32.9442425,246.533388 0.847475776,284.626427 C-0.967790092,286.824746 0.384105278,289.82115 2.53853924,290.953762 C0.536969772,293.128186 0.470091556,297.271538 3.7948943,298.284676 C89.9053747,324.349089 179.565178,341.849617 267.839646,358.953492 C359.157073,376.645179 451.119397,391.244882 543.454329,402.948539 C546.865118,403.397761 548.828471,400.831463 549.019552,398.155249" id="path60" fill="#050301"></path>
            <path d="M273.832288,350.090884 C352.856909,365.364293 432.273214,378.271736 512,389 C383.871589,310.578303 250.641734,243.464389 114.560228,180 C114.373939,180.311311 114.225864,180.675306 113.886723,181.015354 C78.5587431,217.51061 43.4743717,254.676383 7,290.089234 C96.131977,309.582107 184.193988,332.796347 273.832288,350.090884" id="path62" fill="#FFFFFF"></path>
            <path d="M533,377 C489.993752,319.378993 447.603994,261.169869 405.830729,202.712112 C361.710973,141.069922 318.241161,75.9898844 287.378359,6.50136888 C287.115514,5.98019306 287.03905,5.48770581 287.015155,5 C285.849078,5.02390715 284.702117,5.2916672 283.622063,5.76502873 C285.017532,7.80191771 285.208692,10.8237812 282.919549,12.9562988 C242.785482,49.8115577 203.215336,89.0718757 160.409806,122.976993 C160.409806,124.330137 159.874558,125.367707 159,126.061015 C286.164492,205.461434 408.89407,292.822933 533,377" id="path64" fill="#FFFFFF"></path>
            <path d="M533,389 C406.692727,303.977986 277.716049,221.754165 154.632119,132.121111 C153.75346,131.508857 152.93688,130.863121 152.05822,130.250866 C150.04781,128.796763 150.157642,126.687356 151.289394,125.209336 C150.367756,124.20964 149.894999,122.832068 150.372532,121.502328 C146.857895,108.085352 142.875276,94.8979715 137.641523,82.0119346 C135.182232,75.9994074 135.468751,70.9674434 128.831053,72.1823853 C121.801779,73.4308098 122.03577,85.5036966 120.904018,91.37751 C115.770547,118.230595 114.414355,145.341975 111,172.348123 C111.96939,170.989685 113.640753,170.119136 115.73712,170.951419 C260.739779,230.411821 399.868792,306.470052 533,389" id="path66" fill="#C8CACA"></path>
            <path d="M173.094465,98.2060488 C168.142603,103.001698 163.272153,107.902535 158.449594,112.808154 C156.586659,104.617779 153.780284,92.908363 150.001735,81.9257059 C157.467842,87.8353986 165.1734,93.4390879 173.094465,98.2060488 Z M283.256654,12.7450065 C285.550603,10.6125446 285.359041,7.59075992 283.960643,5.55392406 L277.892934,4 C277.677428,4.16256436 277.404453,4.36337917 277.179368,4.57375658 C245.001837,33.3619929 211.488165,61.6195043 180.048145,91.6269733 C168.817857,81.3089176 155.260096,72.3487523 142.157295,63.8906241 C137.224588,55.2029933 131.267027,49.9005262 124.327715,52.3294291 C110.664596,57.1681095 110.746009,88.0505573 108.825606,99.2722797 C104.649567,123.45612 101.761778,148.448 103.528932,173 L110.602338,172.574464 C114.026499,145.579217 115.386585,118.478781 120.534798,91.636536 C121.6698,85.7650936 121.435137,73.6970803 128.484598,72.4491597 C135.141357,71.2347083 134.854015,76.264641 137.320369,82.2747411 C142.569152,95.1555763 146.563208,108.337634 150.087938,121.749194 C149.609034,123.078396 150.083149,124.455412 151.007433,125.454705 C149.872431,126.932128 149.762283,129.040684 151.778467,130.4942 C152.65965,131.106207 153.478575,131.751683 154.359758,132.36369 L159.076958,125.846772 C159.953351,125.153483 160.489723,124.11594 160.489723,122.76283 C203.385117,88.8585979 243.038332,49.599304 283.256654,12.7450065" id="path68" fill="#050301"></path>
            <path d="M158.413936,113 C163.21713,108.075708 168.068022,103.156216 173,98.3423131 C165.110742,93.557207 157.436126,87.9321876 150,82 C153.763376,93.024462 156.558482,104.778449 158.413936,113" id="path70" fill="#C8CACA"></path>
        </g>
    </g>
</svg>