<?xml version="1.0" encoding="UTF-8"?>
<svg width="45px" height="33px" viewBox="0 0 45 33" version="1.1" xmlns="http://www.w3.org/2000/svg" xmlns:xlink="http://www.w3.org/1999/xlink">
    <title>paper-plane</title>
    <g id="Mockup" stroke="none" stroke-width="1" fill="none" fill-rule="evenodd">
        <g id="Home-Screen---Desktop" transform="translate(-332.000000, -275.000000)" fill-rule="nonzero">
            <g id="Flying-Paper-Plane" transform="translate(276.731917, 275.000000)">
                <g id="paper-plane" transform="translate(77.768083, 16.500000) scale(1, -1) translate(-77.768083, -16.500000) translate(55.268083, 0.000000)">
                    <path d="M40.9670756,31.0812879 C34.5884225,30.2248995 28.2346098,29.1945571 21.9121343,27.9753504 C14.7404965,26.5948063 7.694972,24.7417193 0.563843346,23.185692 C3.48202654,20.3588453 6.28900081,17.3920709 9.11546531,14.4788208 C9.14259876,14.4516764 9.15444576,14.4226203 9.16935005,14.3977698 C20.0567415,19.4638429 30.7159827,24.821241 40.9670756,31.0812879 L40.9670756,31.0812879 Z M43.9215642,31.8524199 C44.2479298,32.1043663 44.7565865,31.6834361 44.4810482,31.2957674 C40.8176506,26.1539956 36.9872485,21.1269188 33.3035964,15.9977634 C29.6906441,10.9634226 26.6979394,5.6714005 23.622688,0.309414567 C23.6398852,0.13813687 23.4705878,-0.00217320783 23.3032012,0.0352937884 C22.9577274,-0.0572267533 22.6046104,0.0345291558 22.3680526,0.282652427 C22.3099641,0.281887794 22.2461432,0.29565118 22.186526,0.333500493 L22.6707243,0.457753287 C22.7570928,0.419903974 22.8488115,0.398494262 22.9420588,0.39658268 C22.9439696,0.435578942 22.9500842,0.474957519 22.9711031,0.516629995 C25.4391003,6.07283261 28.9152389,11.2765396 32.4433514,16.2053612 C35.7838228,20.8795601 39.173593,25.5338786 42.6126619,30.1411722 C32.6883168,23.4104939 22.8740341,16.4251931 12.7051058,10.0764488 L12.328677,10.5975459 C22.1788828,17.7617708 32.5006756,24.3337878 42.6088403,31.1294598 C31.9545672,24.5329746 20.8202996,18.4537633 9.21597372,13.7011895 C9.04820493,13.6346665 8.9144485,13.704248 8.83686977,13.8128259 L8.27241763,13.846852 C8.27279979,13.8701733 8.27738572,13.8904361 8.27815004,13.913375 C8.28120733,13.9990139 8.32286291,14.0590375 8.37904061,14.0980338 C5.49486977,16.8484172 2.6355394,19.722671 0.0677980621,22.7701142 C-0.0774232074,22.9459797 0.0307284222,23.185692 0.203083139,23.2763009 C0.0429575818,23.4502548 0.0376073245,23.7817231 0.303591544,23.8627741 C7.19242997,25.9479271 14.3652142,27.3479694 21.4271717,28.7162794 C28.7325659,30.1316143 36.0895518,31.2995905 43.4763463,32.2358831 C43.7492094,32.2718209 43.9062777,32.066517 43.9215642,31.8524199" id="path60" fill="#050301"></path>
                    <path d="M21.9065831,28.0072707 C28.2285527,29.2291434 34.5818571,30.2617389 40.96,31.12 C30.7097271,24.8462643 20.0513387,19.4771511 9.16481825,14.4 C9.14991516,14.4249049 9.13806911,14.4540245 9.11093783,14.4812283 C6.28469945,17.4008488 3.47794974,20.3741106 0.56,23.2071387 C7.69055816,24.7665686 14.735519,26.6237078 21.9065831,28.0072707" id="path62" fill="#FFFFFF"></path>
                    <path d="M42.64,30.16 C39.1995001,25.5503194 35.8083196,20.8935895 32.4664583,16.2169689 C28.9368778,11.2855938 25.4592929,6.07919076 22.9902687,0.52010951 C22.9692411,0.478415445 22.963124,0.439016465 22.9612124,0.4 C22.8679262,0.401912572 22.7761694,0.423333376 22.689765,0.461202298 C22.8014025,0.624153417 22.8166953,0.865902495 22.6335639,1.0365039 C19.4228385,3.98492462 16.2572269,7.12575005 12.8327845,9.83815941 C12.8327845,9.94641097 12.7899646,10.0294166 12.72,10.0848812 C22.8931594,16.4369147 32.7115256,23.4258346 42.64,30.16" id="path64" fill="#FFFFFF"></path>
                    <path d="M42.64,31.12 C32.5354182,24.3182389 22.217284,17.7403332 12.3705695,10.5696889 C12.3002768,10.5207086 12.2349504,10.4690496 12.1646576,10.4200693 C12.0038248,10.303741 12.0126114,10.1349885 12.1031515,10.0167469 C12.0294205,9.93677118 11.9916,9.82656543 12.0298025,9.72018626 C11.7486316,8.64682818 11.4300221,7.59183772 11.0113218,6.56095477 C10.8145785,6.07995259 10.8375001,5.67739547 10.3064843,5.77459082 C9.74414231,5.87446478 9.76286157,6.84029573 9.67232146,7.3102008 C9.26164375,9.45844761 9.15314843,11.627358 8.88,13.7878499 C8.95755123,13.6791748 9.09126026,13.6095309 9.25896957,13.6761135 C20.8591823,18.4329457 31.9895033,24.5176041 42.64,31.12" id="path66" fill="#C8CACA"></path>
                    <path d="M13.8475572,7.8564839 C13.4514082,8.2401358 13.0617723,8.6322028 12.6759675,9.02465229 C12.5269327,8.36942228 12.3024227,7.43266904 12.0001388,6.55405647 C12.5974274,7.02683189 13.213872,7.47512703 13.8475572,7.8564839 Z M22.6605324,1.01960052 C22.8440482,0.849003565 22.8287233,0.607260793 22.7168514,0.444313925 L22.2314348,0.32 C22.2141942,0.333005149 22.1923562,0.349070333 22.1743495,0.365900526 C19.600147,2.66895943 16.9190532,4.92956035 14.4038516,7.33015787 C13.5054285,6.5047134 12.4208077,5.78790019 11.3725836,5.11124993 C10.977967,4.41623946 10.5013622,3.9920421 9.94621717,4.18635433 C8.85316765,4.57344876 8.85968074,7.04404459 8.70604847,7.94178238 C8.37196534,9.87648956 8.14094226,11.87584 8.28231459,13.84 L8.84818705,13.8059571 C9.1221199,11.6463374 9.23092679,9.4783025 9.64278386,7.33092288 C9.73358398,6.86120749 9.71481096,5.89576642 10.2787678,5.79593278 C10.8113086,5.69877666 10.7883212,6.10117128 10.9856295,6.58197929 C11.4055321,7.6124461 11.7250566,8.66701069 12.007035,9.73993549 C11.9687227,9.84627171 12.0066519,9.95643298 12.0805946,10.0363764 C11.9897945,10.1545702 11.9809827,10.3232547 12.1422774,10.439536 C12.212772,10.4884966 12.278286,10.5401347 12.3487806,10.5890952 L12.7261566,10.0677418 C12.7962681,10.0122786 12.8391779,9.92927517 12.8391779,9.82102642 C16.2708093,7.10868783 19.4430666,3.96794432 22.6605324,1.01960052" id="path68" fill="#050301"></path>
                    <path d="M12.6731149,9.04 C13.0573704,8.64605667 13.4454417,8.25249729 13.84,7.86738504 C13.2088594,7.48457656 12.5948901,7.03457501 12,6.56 C12.3010701,7.44195696 12.5246786,8.38227589 12.6731149,9.04" id="path70" fill="#C8CACA"></path>
                </g>
            </g>
        </g>
    </g>
</svg>