<?xml version="1.0" encoding="UTF-8"?>
<svg width="558px" height="558px" viewBox="0 0 558 558" version="1.1" xmlns="http://www.w3.org/2000/svg" xmlns:xlink="http://www.w3.org/1999/xlink">
    <title>Paper Plane Logo</title>
    <g id="Paper-Plane-Logo" stroke="none" stroke-width="1" fill="none" fill-rule="evenodd">
        <g id="paper-plane" transform="translate(278.500000, 280.500000) scale(1, -1) translate(-278.500000, -280.500000) translate(0.000000, 81.000000)" fill-rule="nonzero">
            <path d="M513.088446,388.516099 C433.355281,377.811243 353.932622,364.931963 274.901679,349.69188 C185.256207,332.435079 97.18715,309.271491 8.04804182,289.82115 C44.5253317,254.485567 79.6125102,217.400887 114.943316,180.98526 C115.282484,180.645955 115.430572,180.282754 115.616876,179.972122 C251.709269,243.298036 384.949783,310.265513 513.088446,388.516099 L513.088446,388.516099 Z M556.013103,391.197092 C510.220632,326.924945 462.340607,264.086484 416.294955,199.972043 C371.133051,137.042782 333.724243,70.8925063 295.2836,3.86768209 C295.498565,1.72671087 293.382347,-0.0271650978 291.290015,0.441172355 C286.971593,-0.715334416 283.850393,2.6203752 280.89342,5.72191608 C280.409349,5.71554414 281.23956,5.71554414 283.384054,5.72191608 C284.46366,5.24879968 285.610143,4.98117827 286.775735,4.95728351 C286.79962,5.44473677 286.876052,5.93696899 287.138788,6.45787494 C317.988754,75.9104076 361.440487,140.956745 405.541893,202.567015 C447.297785,260.994502 489.669912,319.173483 532.658274,376.764652 C408.60396,292.631174 285.925426,205.314913 158.813822,125.95561 L154.108462,132.469323 C277.236035,222.022135 408.647942,305.0541 535,390 C401.821586,307.543935 260.253745,230.672041 115.199671,171.264869 C113.102562,170.433331 111.430606,171.3031 110.460872,172.660323 C107.83321,173.362283 106.522563,173.808842 106.528932,174 C106.567149,175.070486 104.035786,175.737969 104.738008,176.225423 C68.6858721,210.605215 32.9442425,246.533388 0.847475776,284.626427 C-0.967790092,286.824746 0.770163044,290.068288 2.92459701,291.2009 C0.923027538,293.375324 0.470091556,297.271538 3.7948943,298.284676 C89.9053747,324.349089 179.565178,341.849617 267.839646,358.953492 C328.717931,370.74795 419.957303,383.625291 541.557761,397.585516 L549.019552,398.155249 C552.282491,398.494058 554.241613,398.178218 554.896917,397.207728 C555.879874,395.751992 557.64309,393.490404 556.013103,391.197092 Z" id="path60" fill="#555555"></path>
            <path d="M529.032408,391.078988 C518.763858,385.147459 512.241438,381.998633 501.926788,376.154543 C376.559517,305.123765 248.150259,239.323213 118.181068,179 C117.988508,179.320248 117.835447,179.694693 117.48489,180.044502 C80.9676513,217.58747 44.2622666,255.348305 6.56004471,291.777793 C98.6925041,311.83027 190.158934,336.182845 282.814761,353.973876 C364.499617,369.685756 446.62175,380.042735 529.032408,391.078988 Z" id="path62" fill="#FFFFFF"></path>
            <path d="M543,387 C498.498882,327.52025 454.635684,267.433413 411.410406,207.089922 C365.757076,143.459274 320.776281,76.2798807 288.840708,4.54980013 C288.568727,4.01181219 288.489605,3.50343826 288.464879,3 C287.258271,3.02467835 286.071442,3.30107582 284.953846,3.78970707 C286.39782,5.89230216 286.595625,9.01164509 284.226913,11.2129536 C242.697811,49.2570918 201.752233,89.7838717 157.45881,124.782702 C157.45881,126.179496 156.904957,127.250537 156,127.966209 C287.584648,209.927932 414.580227,300.107544 543,387" id="path64" fill="#FFFFFF"></path>
            <path d="M536,390 C409.692727,304.977986 280.716049,222.754165 157.632119,133.121111 C156.75346,132.508857 155.93688,131.863121 155.05822,131.250866 C153.04781,129.796763 153.157642,127.687356 154.289394,126.209336 C153.367756,125.20964 152.894999,123.832068 153.372532,122.502328 C149.857895,109.085352 145.875276,95.8979715 140.641523,83.0119346 C138.182232,76.9994074 138.468751,71.9674434 131.831053,73.1823853 C124.801779,74.4308098 125.03577,86.5036966 123.904018,92.37751 C118.770547,119.230595 117.414355,146.341975 114,173.348123 C114.96939,171.989685 116.640753,171.119136 118.73712,171.951419 C263.739779,231.411821 402.868792,307.470052 536,390" id="path66" fill="#C4C2C2"></path>
            <path d="M176.094465,99.2060488 C171.142603,104.001698 166.272153,108.902535 161.449594,113.808154 C159.586659,105.617779 156.780284,93.908363 153.001735,82.9257059 C160.467842,88.8353986 168.1734,94.4390879 176.094465,99.2060488 Z M292.198568,2.058178 C292.320289,1.94502618 290.574313,2.24666188 286.960643,2.9630851 C286.745136,3.12564947 280.404453,5.36337917 280.179368,5.57375658 C248.001837,34.3619929 214.488165,62.6195043 183.048145,92.6269733 C171.817857,82.3089176 158.260096,73.3487523 145.157295,64.8906241 C140.224588,56.2029933 134.267027,50.9005262 127.327715,53.3294291 C113.664596,58.1681095 113.746009,89.0505573 111.825606,100.27228 C107.649567,124.45612 104.761778,149.448 106.528932,174 L113.602338,173.574464 C117.026499,146.579217 118.386585,119.478781 123.534798,92.636536 C124.6698,86.7650936 124.435137,74.6970803 131.484598,73.4491597 C138.141357,72.2347083 137.854015,77.264641 140.320369,83.2747411 C145.569152,96.1555763 149.563208,109.337634 153.087938,122.749194 C152.609034,124.078396 153.083149,125.455412 154.007433,126.454705 C152.872431,127.932128 152.762283,130.040684 154.778467,131.4942 C155.65965,132.106207 156.478575,132.751683 157.359758,133.36369 L162.076958,126.846772 C162.953351,126.153483 163.489723,125.11594 163.489723,123.76283 C206.385117,89.8585979 254.576057,43.4082216 294.794379,6.55392406 L292.198568,2.058178 Z" id="path68" fill="#555555"></path>
            <path d="M161.413936,114 C166.21713,109.075708 171.068022,104.156216 176,99.3423131 C168.110742,94.557207 160.436126,88.9321876 153,83 C156.763376,94.024462 159.558482,105.778449 161.413936,114" id="path70" fill="#C8CACA"></path>
        </g>
    </g>
</svg>